<svg xmlns="http://www.w3.org/2000/svg" style="display: none;">
  <defs>
    <linearGradient id="lg" x1="0" y1="0" x2="24" y2="24">
      <stop offset="0%" stop-color="#818cf8"/>
      <stop offset="100%" stop-color="#c084fc"/>
    </linearGradient>
  </defs>

  <symbol id="icon-logo" viewBox="0 0 24 24" fill="none">
    <circle cx="12" cy="12" r="10" stroke="url(#lg)" stroke-width="2"/>
    <circle cx="12" cy="12" r="6" stroke="url(#lg)" stroke-width="2" opacity="0.7"/>
    <circle cx="12" cy="12" r="2" fill="url(#lg)"/>
  </symbol>

  <symbol id="icon-arrow-left" viewBox="0 0 24 24" fill="none" stroke="currentColor" stroke-width="2">
    <path d="M19 12H5M12 19l-7-7 7-7"/>
  </symbol>

  <symbol id="icon-x" viewBox="0 0 24 24" fill="none" stroke="currentColor" stroke-width="2">
    <path d="M18 6L6 18M6 6l12 12"/>
  </symbol>

  <symbol id="icon-plus" viewBox="0 0 24 24" fill="none" stroke="currentColor" stroke-width="2">
    <path d="M12 5v14M5 12h14"/>
  </symbol>

  <symbol id="icon-check" viewBox="0 0 24 24" fill="none" stroke="#34d399" stroke-width="2.5">
    <path d="M20 6L9 17l-5-5"/>
  </symbol>

  <symbol id="icon-browse" viewBox="0 0 24 24" fill="none" stroke="currentColor" stroke-width="2">
    <ellipse cx="12" cy="5" rx="9" ry="3"/>
    <path d="M21 12c0 1.66-4 3-9 3s-9-1.34-9-3"/>
    <path d="M3 5v14c0 1.66 4 3 9 3s9-1.34 9-3V5"/>
  </symbol>

  <symbol id="icon-edit" viewBox="0 0 24 24" fill="none" stroke="currentColor" stroke-width="2">
    <path d="M11 4H4a2 2 0 0 0-2 2v14a2 2 0 0 0 2 2h14a2 2 0 0 0 2-2v-7"/>
    <path d="M18.5 2.5a2.121 2.121 0 0 1 3 3L12 15l-4 1 1-4 9.5-9.5z"/>
  </symbol>

  <symbol id="icon-trash" viewBox="0 0 24 24" fill="none" stroke="currentColor" stroke-width="2">
    <path d="M3 6h18M19 6v14a2 2 0 0 1-2 2H7a2 2 0 0 1-2-2V6m3 0V4a2 2 0 0 1 2-2h4a2 2 0 0 1 2 2v2"/>
  </symbol>

  <symbol id="icon-box" viewBox="0 0 24 24" fill="none" stroke="currentColor" stroke-width="1.5">
    <rect x="3" y="3" width="18" height="18" rx="2"/>
    <path d="M12 8v8M8 12h8"/>
  </symbol>

  <symbol id="icon-cursor" viewBox="0 0 24 24" fill="none" stroke="currentColor" stroke-width="2">
    <path d="M5 3l14 9-14 9V3z"/>
  </symbol>

  <symbol id="icon-picking" viewBox="0 0 24 24" fill="none" stroke="currentColor" stroke-width="2">
    <circle cx="12" cy="12" r="10"/>
  </symbol>
</svg>
